<svg width="81" height="54" viewBox="0 0 81 54" fill="none" xmlns="http://www.w3.org/2000/svg">
<path d="M5.04 13.08C5.04 14.184 5.832 14.736 7.416 14.736C9.016 14.736 9.816 14.24 9.816 13.248C9.816 12.72 9.544 12.288 9 11.952C8.456 11.616 7.792 11.336 7.008 11.112C6.24 10.888 5.464 10.632 4.68 10.344C3.912 10.04 3.256 9.576 2.712 8.952C2.168 8.312 1.896 7.52 1.896 6.576C1.896 2.56 4.48 0.551999 9.648 0.551999C11.536 0.551999 12.96 0.911999 13.92 1.632C14.896 2.336 15.384 3.32 15.384 4.584C15.384 5.048 15.32 5.496 15.192 5.928C15.08 6.344 14.96 6.64 14.832 6.816L14.64 7.104H10.392C10.744 6.736 10.92 6.272 10.92 5.712C10.92 4.672 10.24 4.152 8.88 4.152C7.168 4.152 6.312 4.696 6.312 5.784C6.312 6.328 6.584 6.76 7.128 7.08C7.672 7.4 8.328 7.656 9.096 7.848C9.88 8.024 10.664 8.248 11.448 8.52C12.232 8.792 12.896 9.248 13.44 9.888C13.984 10.512 14.256 11.328 14.256 12.336C14.256 14.368 13.648 15.88 12.432 16.872C11.216 17.848 9.344 18.336 6.816 18.336C4.288 18.336 2.56 17.888 1.632 16.992C0.944 16.32 0.6 15.392 0.6 14.208C0.6 13.76 0.648 13.272 0.744 12.744L0.816 12.36H5.136L5.088 12.648C5.056 12.808 5.04 12.952 5.04 13.08ZM24.1305 12.744H21.2745L20.3385 18H16.0185L19.0665 0.719999H26.3865C28.1945 0.719999 29.4825 1.136 30.2505 1.968C30.8105 2.608 31.0905 3.424 31.0905 4.416C31.0905 4.752 31.0585 5.104 30.9945 5.472L30.5145 8.184C30.2745 9.512 29.5705 10.608 28.4025 11.472C27.2345 12.32 25.8105 12.744 24.1305 12.744ZM24.8745 4.464H22.7145L21.9225 9H24.0585C25.3705 9 26.1305 8.416 26.3385 7.248L26.5065 6.264C26.5385 6.12 26.5545 5.928 26.5545 5.688C26.5545 5.448 26.4345 5.184 26.1945 4.896C25.9545 4.608 25.5145 4.464 24.8745 4.464ZM40.6592 0.551999C44.5152 0.551999 46.4432 2.128 46.4432 5.28C46.4432 5.808 46.3872 6.376 46.2752 6.984L45.4352 11.784C45.0512 14.008 44.2192 15.656 42.9392 16.728C41.6592 17.8 39.8592 18.336 37.5392 18.336C35.2192 18.336 33.6032 17.8 32.6912 16.728C32.0672 15.992 31.7552 14.976 31.7552 13.68C31.7552 13.104 31.8192 12.472 31.9472 11.784L32.7872 6.984C33.5392 2.696 36.1632 0.551999 40.6592 0.551999ZM38.1872 14.616C38.9872 14.616 39.6272 14.408 40.1072 13.992C40.5872 13.576 40.9232 12.808 41.1152 11.688L41.9312 7.08C41.9792 6.76 42.0032 6.472 42.0032 6.216C42.0032 4.92 41.3472 4.272 40.0352 4.272C38.3872 4.304 37.4032 5.24 37.0832 7.08L36.2672 11.688C36.2032 12.088 36.1712 12.504 36.1712 12.936C36.1712 14.056 36.8432 14.616 38.1872 14.616ZM57.2687 0.719999C59.0927 0.719999 60.3887 1.12 61.1567 1.92C61.7327 2.528 62.0207 3.296 62.0207 4.224C62.0207 4.544 61.9887 4.88 61.9247 5.232L61.5887 7.104C61.3967 8.144 61.0607 8.984 60.5807 9.624C60.1167 10.264 59.5967 10.72 59.0207 10.992L61.2047 18H56.3567L54.3407 11.544H52.8527L51.8687 18H47.2607L50.3087 0.719999H57.2687ZM55.7567 4.464H53.9567L53.3327 8.64H55.0127C55.8607 8.64 56.4687 8.44 56.8367 8.04C57.2047 7.624 57.3887 7.08 57.3887 6.408C57.3887 5.112 56.8447 4.464 55.7567 4.464ZM79.8883 4.464H73.9843L71.6083 18H67.2643L69.6403 4.464H63.7123L64.3843 0.719999H80.5603L79.8883 4.464ZM5.04 48.08C5.04 49.184 5.832 49.736 7.416 49.736C9.016 49.736 9.816 49.24 9.816 48.248C9.816 47.72 9.544 47.288 9 46.952C8.456 46.616 7.792 46.336 7.008 46.112C6.24 45.888 5.464 45.632 4.68 45.344C3.912 45.04 3.256 44.576 2.712 43.952C2.168 43.312 1.896 42.52 1.896 41.576C1.896 37.56 4.48 35.552 9.648 35.552C11.536 35.552 12.96 35.912 13.92 36.632C14.896 37.336 15.384 38.32 15.384 39.584C15.384 40.048 15.32 40.496 15.192 40.928C15.08 41.344 14.96 41.64 14.832 41.816L14.64 42.104H10.392C10.744 41.736 10.92 41.272 10.92 40.712C10.92 39.672 10.24 39.152 8.88 39.152C7.168 39.152 6.312 39.696 6.312 40.784C6.312 41.328 6.584 41.76 7.128 42.08C7.672 42.4 8.328 42.656 9.096 42.848C9.88 43.024 10.664 43.248 11.448 43.52C12.232 43.792 12.896 44.248 13.44 44.888C13.984 45.512 14.256 46.328 14.256 47.336C14.256 49.368 13.648 50.88 12.432 51.872C11.216 52.848 9.344 53.336 6.816 53.336C4.288 53.336 2.56 52.888 1.632 51.992C0.944 51.32 0.6 50.392 0.6 49.208C0.6 48.76 0.648 48.272 0.744 47.744L0.816 47.36H5.136L5.088 47.648C5.056 47.808 5.04 47.952 5.04 48.08ZM33.1305 39.464H27.2265L24.8505 53H20.5065L22.8825 39.464H16.9545L17.6265 35.72H33.8025L33.1305 39.464ZM42.0654 35.552C45.9214 35.552 47.8494 37.128 47.8494 40.28C47.8494 40.808 47.7934 41.376 47.6814 41.984L46.8414 46.784C46.4574 49.008 45.6254 50.656 44.3454 51.728C43.0654 52.8 41.2654 53.336 38.9454 53.336C36.6254 53.336 35.0094 52.8 34.0974 51.728C33.4734 50.992 33.1614 49.976 33.1614 48.68C33.1614 48.104 33.2254 47.472 33.3534 46.784L34.1934 41.984C34.9454 37.696 37.5694 35.552 42.0654 35.552ZM39.5934 49.616C40.3934 49.616 41.0334 49.408 41.5134 48.992C41.9934 48.576 42.3294 47.808 42.5214 46.688L43.3374 42.08C43.3854 41.76 43.4094 41.472 43.4094 41.216C43.4094 39.92 42.7534 39.272 41.4414 39.272C39.7934 39.304 38.8094 40.24 38.4894 42.08L37.6734 46.688C37.6094 47.088 37.5774 47.504 37.5774 47.936C37.5774 49.056 38.2494 49.616 39.5934 49.616ZM56.7789 47.744H53.9229L52.9869 53H48.6669L51.7149 35.72H59.0349C60.8429 35.72 62.1309 36.136 62.8989 36.968C63.4589 37.608 63.7389 38.424 63.7389 39.416C63.7389 39.752 63.7069 40.104 63.6429 40.472L63.1629 43.184C62.9229 44.512 62.2189 45.608 61.0509 46.472C59.8829 47.32 58.4589 47.744 56.7789 47.744ZM57.5229 39.464H55.3629L54.5709 44H56.7069C58.0189 44 58.7789 43.416 58.9869 42.248L59.1549 41.264C59.1869 41.12 59.2029 40.928 59.2029 40.688C59.2029 40.448 59.0829 40.184 58.8429 39.896C58.6029 39.608 58.1629 39.464 57.5229 39.464ZM76.0196 53H63.9716L67.0196 35.72H79.0676L78.3956 39.464H70.6676L70.1156 42.704H76.4996L75.8276 46.448H69.4436L68.9636 49.256H76.6916L76.0196 53Z" fill="#ECECEC"/>
</svg>
